<?xml version="1.0" standalone="no"?>
<!DOCTYPE svg PUBLIC "-//W3C//DTD SVG 20010904//EN"
 "http://www.w3.org/TR/2001/REC-SVG-20010904/DTD/svg10.dtd">
<svg version="1.0" xmlns="http://www.w3.org/2000/svg"
 width="2999.000000pt" height="2999.000000pt" viewBox="0 0 2999.000000 2999.000000"
 preserveAspectRatio="xMidYMid meet">
<metadata>
Created by potrace 1.11, written by Peter Selinger 2001-2013
</metadata>
<g transform="translate(0.000000,2999.000000) scale(0.100000,-0.100000)"
fill="#000000" stroke="none">
<path d="M4689 29986 c-2 -2 -51 -7 -109 -11 -58 -3 -114 -8 -125 -10 -11 -2
-47 -7 -80 -10 -33 -3 -71 -7 -85 -9 -14 -3 -61 -10 -105 -16 -44 -6 -96 -15
-115 -20 -19 -5 -53 -11 -76 -15 -22 -3 -55 -10 -72 -15 -18 -5 -32 -7 -32 -5
0 3 -11 0 -25 -5 -14 -5 -36 -12 -48 -14 -62 -12 -166 -39 -287 -76 -74 -23
-139 -43 -145 -44 -5 -2 -23 -8 -38 -14 -16 -7 -33 -12 -38 -12 -5 0 -17 -4
-27 -9 -9 -5 -73 -30 -142 -56 -185 -71 -499 -220 -631 -301 -31 -19 -60 -34
-63 -34 -4 0 -12 -5 -19 -10 -7 -6 -66 -44 -132 -86 -399 -252 -785 -584
-1090 -938 -27 -32 -58 -68 -69 -80 -10 -11 -30 -37 -45 -56 -14 -19 -28 -37
-32 -40 -27 -24 -246 -336 -326 -465 -45 -73 -68 -112 -141 -245 -14 -25 -35
-63 -47 -85 -19 -35 -117 -242 -161 -340 -49 -110 -128 -331 -193 -540 -31
-97 -99 -382 -115 -480 -8 -51 -27 -159 -31 -185 -3 -14 -7 -49 -11 -78 -3
-29 -7 -63 -10 -75 -2 -12 -7 -56 -11 -97 -10 -99 -10 -20943 0 -21040 4 -42
9 -85 11 -95 2 -11 7 -49 11 -85 4 -36 8 -67 10 -70 2 -3 6 -27 9 -55 4 -27
11 -72 16 -100 5 -27 12 -61 14 -75 7 -38 55 -246 61 -261 2 -8 6 -25 9 -39
18 -99 150 -490 212 -628 13 -29 24 -55 24 -57 0 -7 57 -130 116 -250 86 -176
168 -320 279 -491 66 -101 221 -322 234 -334 4 -3 40 -48 82 -100 218 -273
439 -492 774 -769 11 -9 70 -53 132 -99 353 -260 731 -469 1138 -630 198 -78
552 -188 673 -208 15 -3 38 -8 52 -13 14 -5 54 -14 90 -21 36 -6 85 -16 110
-21 46 -9 69 -13 155 -25 28 -3 59 -8 70 -10 11 -2 45 -7 75 -10 30 -3 69 -8
85 -11 17 -4 4737 -8 10490 -9 8847 -2 10480 0 10590 12 894 95 1720 417 2445
952 63 47 117 88 120 91 3 4 25 22 50 41 25 19 50 39 56 45 6 5 40 35 75 65
161 139 359 337 499 500 79 92 115 136 192 239 48 64 92 121 97 127 4 6 26 37
47 70 21 32 42 61 45 64 12 11 169 271 221 366 56 104 143 279 172 349 9 22
22 48 27 59 19 34 120 298 159 417 54 160 115 388 144 534 9 44 19 91 21 105
3 14 8 39 10 56 3 17 11 74 19 125 23 145 28 191 43 354 11 121 10 20659 -1
20805 -11 148 -13 173 -21 240 -10 81 -63 397 -76 455 -28 120 -72 286 -96
365 -15 47 -27 87 -28 90 -4 25 -78 231 -120 336 -138 344 -311 667 -522 974
-32 46 -147 205 -153 210 -3 3 -43 52 -90 110 -154 191 -368 415 -545 571 -27
24 -52 46 -55 49 -49 54 -337 272 -500 378 -69 45 -129 86 -135 90 -68 52
-485 268 -660 342 -340 144 -735 264 -1035 315 -19 3 -42 8 -50 10 -15 4 -40
8 -135 20 -70 9 -106 15 -135 20 -14 2 -56 7 -95 11 -38 3 -90 9 -115 12 -50
6 -20714 14 -20721 8z"/>
</g>
</svg>
